# xmcd
#
# Track frame offsets: 
#        150
#        21459
#        45414
#
# Disc length: 881 seconds
#
# Revision: 0
# Processed by: cddbd v1.5.1PL0 Copyright (c) Steve Scherf et al.
# Submitted via: ExactAudioCopy v0.95a5
#
DISCID=1d036f03
DTITLE=Cross Canadian Ragweed - Three Song Sampler
DYEAR=2002
DGENRE=Rock
TTITLE0=Don't Need You
TTITLE1=17
TTITLE2=Suicide Blues
EXTD=
EXTT0=
EXTT1=
EXTT2=
PLAYORDER=
